<svg xmlns="http://www.w3.org/2000/svg" xmlns:xlink="http://www.w3.org/1999/xlink" width="180" zoomAndPan="magnify" viewBox="0 0 135 30.000001" height="40" preserveAspectRatio="xMidYMid meet" version="1.0"><defs><g/></defs><g fill="#fef5e4" fill-opacity="1"><g transform="translate(17.520478, 22.016157)"><g><path d="M 5.5 -13.953125 C 6.257812 -13.953125 6.84375 -13.867188 7.25 -13.703125 C 7.664062 -13.546875 8.019531 -13.375 8.3125 -13.1875 C 8.46875 -13.101562 8.59375 -13.035156 8.6875 -12.984375 C 8.789062 -12.941406 8.882812 -12.921875 8.96875 -12.921875 C 9.101562 -12.921875 9.195312 -12.988281 9.25 -13.125 C 9.3125 -13.269531 9.363281 -13.484375 9.40625 -13.765625 L 9.84375 -13.765625 C 9.832031 -13.523438 9.816406 -13.234375 9.796875 -12.890625 C 9.773438 -12.546875 9.757812 -12.097656 9.75 -11.546875 C 9.75 -10.992188 9.75 -10.265625 9.75 -9.359375 L 9.296875 -9.359375 C 9.253906 -10.035156 9.101562 -10.6875 8.84375 -11.3125 C 8.582031 -11.945312 8.21875 -12.46875 7.75 -12.875 C 7.28125 -13.28125 6.703125 -13.484375 6.015625 -13.484375 C 5.398438 -13.484375 4.890625 -13.304688 4.484375 -12.953125 C 4.085938 -12.609375 3.890625 -12.128906 3.890625 -11.515625 C 3.890625 -10.992188 4.015625 -10.550781 4.265625 -10.1875 C 4.523438 -9.820312 4.90625 -9.460938 5.40625 -9.109375 C 5.90625 -8.765625 6.507812 -8.347656 7.21875 -7.859375 C 7.832031 -7.453125 8.382812 -7.046875 8.875 -6.640625 C 9.363281 -6.242188 9.753906 -5.796875 10.046875 -5.296875 C 10.347656 -4.796875 10.5 -4.195312 10.5 -3.5 C 10.5 -2.644531 10.273438 -1.941406 9.828125 -1.390625 C 9.390625 -0.835938 8.804688 -0.421875 8.078125 -0.140625 C 7.359375 0.128906 6.566406 0.265625 5.703125 0.265625 C 4.898438 0.265625 4.257812 0.1875 3.78125 0.03125 C 3.3125 -0.113281 2.914062 -0.269531 2.59375 -0.4375 C 2.3125 -0.625 2.09375 -0.71875 1.9375 -0.71875 C 1.800781 -0.71875 1.703125 -0.644531 1.640625 -0.5 C 1.585938 -0.363281 1.546875 -0.148438 1.515625 0.140625 L 1.0625 0.140625 C 1.09375 -0.171875 1.109375 -0.53125 1.109375 -0.9375 C 1.117188 -1.351562 1.125 -1.894531 1.125 -2.5625 C 1.132812 -3.226562 1.140625 -4.070312 1.140625 -5.09375 L 1.59375 -5.09375 C 1.632812 -4.238281 1.773438 -3.441406 2.015625 -2.703125 C 2.253906 -1.960938 2.625 -1.363281 3.125 -0.90625 C 3.625 -0.457031 4.285156 -0.234375 5.109375 -0.234375 C 5.554688 -0.234375 5.957031 -0.3125 6.3125 -0.46875 C 6.664062 -0.632812 6.953125 -0.878906 7.171875 -1.203125 C 7.390625 -1.523438 7.5 -1.925781 7.5 -2.40625 C 7.5 -2.945312 7.375 -3.414062 7.125 -3.8125 C 6.875 -4.207031 6.53125 -4.578125 6.09375 -4.921875 C 5.664062 -5.273438 5.171875 -5.632812 4.609375 -6 C 3.992188 -6.394531 3.421875 -6.789062 2.890625 -7.1875 C 2.367188 -7.59375 1.945312 -8.050781 1.625 -8.5625 C 1.3125 -9.082031 1.15625 -9.695312 1.15625 -10.40625 C 1.15625 -11.21875 1.359375 -11.882812 1.765625 -12.40625 C 2.171875 -12.925781 2.707031 -13.3125 3.375 -13.5625 C 4.039062 -13.820312 4.75 -13.953125 5.5 -13.953125 Z M 5.5 -13.953125 "/></g></g></g><g fill="#fef5e4" fill-opacity="1"><g transform="translate(28.819252, 22.016157)"><g><path d="M 2.984375 -14.984375 C 3.523438 -14.984375 3.953125 -14.851562 4.265625 -14.59375 C 4.578125 -14.332031 4.734375 -13.96875 4.734375 -13.5 C 4.734375 -13.039062 4.578125 -12.675781 4.265625 -12.40625 C 3.953125 -12.144531 3.523438 -12.015625 2.984375 -12.015625 C 2.441406 -12.015625 2.007812 -12.144531 1.6875 -12.40625 C 1.375 -12.675781 1.21875 -13.039062 1.21875 -13.5 C 1.21875 -13.96875 1.375 -14.332031 1.6875 -14.59375 C 2.007812 -14.851562 2.441406 -14.984375 2.984375 -14.984375 Z M 4.484375 -10.21875 L 4.484375 -1.796875 C 4.484375 -1.253906 4.578125 -0.882812 4.765625 -0.6875 C 4.953125 -0.5 5.269531 -0.40625 5.71875 -0.40625 L 5.71875 0 C 5.488281 -0.0078125 5.128906 -0.0234375 4.640625 -0.046875 C 4.148438 -0.0664062 3.65625 -0.078125 3.15625 -0.078125 C 2.65625 -0.078125 2.144531 -0.0664062 1.625 -0.046875 C 1.101562 -0.0234375 0.71875 -0.0078125 0.46875 0 L 0.46875 -0.40625 C 0.914062 -0.40625 1.234375 -0.5 1.421875 -0.6875 C 1.609375 -0.882812 1.703125 -1.253906 1.703125 -1.796875 L 1.703125 -7.890625 C 1.703125 -8.472656 1.613281 -8.898438 1.4375 -9.171875 C 1.269531 -9.453125 0.945312 -9.59375 0.46875 -9.59375 L 0.46875 -10 C 0.875 -9.957031 1.269531 -9.9375 1.65625 -9.9375 C 2.195312 -9.9375 2.703125 -9.957031 3.171875 -10 C 3.648438 -10.050781 4.085938 -10.125 4.484375 -10.21875 Z M 4.484375 -10.21875 "/></g></g></g><g fill="#fef5e4" fill-opacity="1"><g transform="translate(34.913618, 22.016157)"><g><path d="M 9.984375 -15.140625 L 9.984375 -2.125 C 9.984375 -1.539062 10.070312 -1.109375 10.25 -0.828125 C 10.425781 -0.554688 10.75 -0.421875 11.21875 -0.421875 L 11.21875 -0.015625 C 10.820312 -0.0546875 10.421875 -0.078125 10.015625 -0.078125 C 9.472656 -0.078125 8.96875 -0.0546875 8.5 -0.015625 C 8.03125 0.015625 7.597656 0.0820312 7.203125 0.1875 L 7.203125 -12.828125 C 7.203125 -13.410156 7.113281 -13.835938 6.9375 -14.109375 C 6.757812 -14.390625 6.429688 -14.53125 5.953125 -14.53125 L 5.953125 -14.9375 C 6.367188 -14.894531 6.769531 -14.875 7.15625 -14.875 C 7.6875 -14.875 8.1875 -14.894531 8.65625 -14.9375 C 9.132812 -14.988281 9.578125 -15.054688 9.984375 -15.140625 Z M 5.046875 -10.265625 C 5.617188 -10.265625 6.117188 -10.171875 6.546875 -9.984375 C 6.984375 -9.796875 7.320312 -9.484375 7.5625 -9.046875 L 7.328125 -8.84375 C 7.160156 -9.144531 6.9375 -9.363281 6.65625 -9.5 C 6.382812 -9.632812 6.09375 -9.703125 5.78125 -9.703125 C 5.125 -9.703125 4.601562 -9.316406 4.21875 -8.546875 C 3.832031 -7.785156 3.644531 -6.609375 3.65625 -5.015625 C 3.65625 -3.910156 3.726562 -3.03125 3.875 -2.375 C 4.019531 -1.726562 4.234375 -1.265625 4.515625 -0.984375 C 4.796875 -0.703125 5.113281 -0.5625 5.46875 -0.5625 C 5.90625 -0.5625 6.296875 -0.734375 6.640625 -1.078125 C 6.992188 -1.429688 7.1875 -1.90625 7.21875 -2.5 L 7.3125 -1.8125 C 7.113281 -1.132812 6.796875 -0.617188 6.359375 -0.265625 C 5.929688 0.0859375 5.375 0.265625 4.6875 0.265625 C 3.925781 0.265625 3.242188 0.0820312 2.640625 -0.28125 C 2.035156 -0.65625 1.566406 -1.234375 1.234375 -2.015625 C 0.898438 -2.796875 0.734375 -3.804688 0.734375 -5.046875 C 0.734375 -6.222656 0.921875 -7.191406 1.296875 -7.953125 C 1.671875 -8.722656 2.179688 -9.300781 2.828125 -9.6875 C 3.484375 -10.070312 4.222656 -10.265625 5.046875 -10.265625 Z M 5.046875 -10.265625 "/></g></g></g><g fill="#fef5e4" fill-opacity="1"><g transform="translate(46.483252, 22.016157)"><g><path d="M 9.984375 -15.140625 L 9.984375 -2.125 C 9.984375 -1.539062 10.070312 -1.109375 10.25 -0.828125 C 10.425781 -0.554688 10.75 -0.421875 11.21875 -0.421875 L 11.21875 -0.015625 C 10.820312 -0.0546875 10.421875 -0.078125 10.015625 -0.078125 C 9.472656 -0.078125 8.96875 -0.0546875 8.5 -0.015625 C 8.03125 0.015625 7.597656 0.0820312 7.203125 0.1875 L 7.203125 -12.828125 C 7.203125 -13.410156 7.113281 -13.835938 6.9375 -14.109375 C 6.757812 -14.390625 6.429688 -14.53125 5.953125 -14.53125 L 5.953125 -14.9375 C 6.367188 -14.894531 6.769531 -14.875 7.15625 -14.875 C 7.6875 -14.875 8.1875 -14.894531 8.65625 -14.9375 C 9.132812 -14.988281 9.578125 -15.054688 9.984375 -15.140625 Z M 5.046875 -10.265625 C 5.617188 -10.265625 6.117188 -10.171875 6.546875 -9.984375 C 6.984375 -9.796875 7.320312 -9.484375 7.5625 -9.046875 L 7.328125 -8.84375 C 7.160156 -9.144531 6.9375 -9.363281 6.65625 -9.5 C 6.382812 -9.632812 6.09375 -9.703125 5.78125 -9.703125 C 5.125 -9.703125 4.601562 -9.316406 4.21875 -8.546875 C 3.832031 -7.785156 3.644531 -6.609375 3.65625 -5.015625 C 3.65625 -3.910156 3.726562 -3.03125 3.875 -2.375 C 4.019531 -1.726562 4.234375 -1.265625 4.515625 -0.984375 C 4.796875 -0.703125 5.113281 -0.5625 5.46875 -0.5625 C 5.90625 -0.5625 6.296875 -0.734375 6.640625 -1.078125 C 6.992188 -1.429688 7.1875 -1.90625 7.21875 -2.5 L 7.3125 -1.8125 C 7.113281 -1.132812 6.796875 -0.617188 6.359375 -0.265625 C 5.929688 0.0859375 5.375 0.265625 4.6875 0.265625 C 3.925781 0.265625 3.242188 0.0820312 2.640625 -0.28125 C 2.035156 -0.65625 1.566406 -1.234375 1.234375 -2.015625 C 0.898438 -2.796875 0.734375 -3.804688 0.734375 -5.046875 C 0.734375 -6.222656 0.921875 -7.191406 1.296875 -7.953125 C 1.671875 -8.722656 2.179688 -9.300781 2.828125 -9.6875 C 3.484375 -10.070312 4.222656 -10.265625 5.046875 -10.265625 Z M 5.046875 -10.265625 "/></g></g></g><g fill="#fef5e4" fill-opacity="1"><g transform="translate(58.052885, 22.016157)"><g><path d="M 4.390625 -15.125 L 4.390625 -8.46875 C 4.710938 -9.144531 5.144531 -9.613281 5.6875 -9.875 C 6.238281 -10.132812 6.859375 -10.265625 7.546875 -10.265625 C 8.097656 -10.265625 8.539062 -10.195312 8.875 -10.0625 C 9.207031 -9.925781 9.472656 -9.742188 9.671875 -9.515625 C 9.890625 -9.273438 10.046875 -8.957031 10.140625 -8.5625 C 10.242188 -8.175781 10.296875 -7.65625 10.296875 -7 L 10.296875 -1.796875 C 10.296875 -1.253906 10.390625 -0.882812 10.578125 -0.6875 C 10.765625 -0.5 11.082031 -0.40625 11.53125 -0.40625 L 11.53125 0 C 11.28125 -0.0078125 10.90625 -0.0234375 10.40625 -0.046875 C 9.914062 -0.0664062 9.4375 -0.078125 8.96875 -0.078125 C 8.46875 -0.078125 7.984375 -0.0664062 7.515625 -0.046875 C 7.046875 -0.0234375 6.691406 -0.0078125 6.453125 0 L 6.453125 -0.40625 C 6.847656 -0.40625 7.117188 -0.5 7.265625 -0.6875 C 7.421875 -0.882812 7.5 -1.253906 7.5 -1.796875 L 7.5 -7.8125 C 7.5 -8.132812 7.46875 -8.414062 7.40625 -8.65625 C 7.34375 -8.894531 7.222656 -9.082031 7.046875 -9.21875 C 6.878906 -9.351562 6.632812 -9.421875 6.3125 -9.421875 C 5.957031 -9.421875 5.632812 -9.328125 5.34375 -9.140625 C 5.050781 -8.953125 4.816406 -8.691406 4.640625 -8.359375 C 4.472656 -8.023438 4.390625 -7.640625 4.390625 -7.203125 L 4.390625 -1.796875 C 4.390625 -1.253906 4.46875 -0.882812 4.625 -0.6875 C 4.78125 -0.5 5.050781 -0.40625 5.4375 -0.40625 L 5.4375 0 C 5.207031 -0.0078125 4.863281 -0.0234375 4.40625 -0.046875 C 3.957031 -0.0664062 3.5 -0.078125 3.03125 -0.078125 C 2.53125 -0.078125 2.023438 -0.0664062 1.515625 -0.046875 C 1.003906 -0.0234375 0.625 -0.0078125 0.375 0 L 0.375 -0.40625 C 0.820312 -0.40625 1.140625 -0.5 1.328125 -0.6875 C 1.515625 -0.882812 1.609375 -1.253906 1.609375 -1.796875 L 1.609375 -12.8125 C 1.609375 -13.382812 1.519531 -13.8125 1.34375 -14.09375 C 1.164062 -14.375 0.84375 -14.515625 0.375 -14.515625 L 0.375 -14.921875 C 0.78125 -14.878906 1.175781 -14.859375 1.5625 -14.859375 C 2.09375 -14.859375 2.597656 -14.878906 3.078125 -14.921875 C 3.554688 -14.960938 3.992188 -15.03125 4.390625 -15.125 Z M 4.390625 -15.125 "/></g></g></g><g fill="#fef5e4" fill-opacity="1"><g transform="translate(69.815987, 22.016157)"><g><path d="M 3.140625 0.140625 C 2.554688 0.140625 2.070312 0.03125 1.6875 -0.1875 C 1.300781 -0.40625 1.015625 -0.695312 0.828125 -1.0625 C 0.648438 -1.4375 0.5625 -1.84375 0.5625 -2.28125 C 0.5625 -2.832031 0.6875 -3.28125 0.9375 -3.625 C 1.1875 -3.976562 1.507812 -4.265625 1.90625 -4.484375 C 2.3125 -4.703125 2.734375 -4.878906 3.171875 -5.015625 C 3.617188 -5.160156 4.046875 -5.300781 4.453125 -5.4375 C 4.859375 -5.570312 5.1875 -5.734375 5.4375 -5.921875 C 5.695312 -6.109375 5.828125 -6.351562 5.828125 -6.65625 L 5.828125 -8.15625 C 5.828125 -8.5 5.769531 -8.800781 5.65625 -9.0625 C 5.550781 -9.320312 5.382812 -9.523438 5.15625 -9.671875 C 4.925781 -9.816406 4.632812 -9.890625 4.28125 -9.890625 C 4.019531 -9.890625 3.757812 -9.851562 3.5 -9.78125 C 3.238281 -9.707031 3.023438 -9.585938 2.859375 -9.421875 C 3.222656 -9.296875 3.503906 -9.097656 3.703125 -8.828125 C 3.898438 -8.566406 4 -8.269531 4 -7.9375 C 4 -7.488281 3.847656 -7.132812 3.546875 -6.875 C 3.242188 -6.625 2.882812 -6.5 2.46875 -6.5 C 2.007812 -6.5 1.660156 -6.644531 1.421875 -6.9375 C 1.179688 -7.226562 1.0625 -7.578125 1.0625 -7.984375 C 1.0625 -8.359375 1.15625 -8.664062 1.34375 -8.90625 C 1.53125 -9.15625 1.789062 -9.390625 2.125 -9.609375 C 2.488281 -9.816406 2.925781 -9.976562 3.4375 -10.09375 C 3.945312 -10.207031 4.5 -10.265625 5.09375 -10.265625 C 5.6875 -10.265625 6.21875 -10.203125 6.6875 -10.078125 C 7.164062 -9.960938 7.566406 -9.742188 7.890625 -9.421875 C 8.191406 -9.117188 8.382812 -8.75 8.46875 -8.3125 C 8.5625 -7.882812 8.609375 -7.34375 8.609375 -6.6875 L 8.609375 -1.4375 C 8.609375 -1.113281 8.640625 -0.890625 8.703125 -0.765625 C 8.765625 -0.640625 8.875 -0.578125 9.03125 -0.578125 C 9.144531 -0.578125 9.253906 -0.609375 9.359375 -0.671875 C 9.472656 -0.742188 9.597656 -0.820312 9.734375 -0.90625 L 9.921875 -0.578125 C 9.648438 -0.347656 9.335938 -0.171875 8.984375 -0.046875 C 8.628906 0.078125 8.234375 0.140625 7.796875 0.140625 C 7.316406 0.140625 6.9375 0.0703125 6.65625 -0.0625 C 6.375 -0.195312 6.171875 -0.378906 6.046875 -0.609375 C 5.921875 -0.847656 5.859375 -1.125 5.859375 -1.4375 C 5.546875 -0.945312 5.171875 -0.5625 4.734375 -0.28125 C 4.296875 0 3.765625 0.140625 3.140625 0.140625 Z M 4.5 -1.109375 C 4.757812 -1.109375 4.992188 -1.164062 5.203125 -1.28125 C 5.421875 -1.40625 5.628906 -1.609375 5.828125 -1.890625 L 5.828125 -5.859375 C 5.703125 -5.671875 5.535156 -5.5 5.328125 -5.34375 C 5.128906 -5.1875 4.910156 -5.023438 4.671875 -4.859375 C 4.441406 -4.703125 4.21875 -4.523438 4 -4.328125 C 3.789062 -4.140625 3.625 -3.898438 3.5 -3.609375 C 3.375 -3.328125 3.3125 -2.988281 3.3125 -2.59375 C 3.3125 -2.09375 3.421875 -1.71875 3.640625 -1.46875 C 3.859375 -1.226562 4.144531 -1.109375 4.5 -1.109375 Z M 4.5 -1.109375 "/></g></g></g><g fill="#fef5e4" fill-opacity="1"><g transform="translate(79.837843, 22.016157)"><g><path d="M 7.125 -10.265625 C 7.53125 -10.265625 7.863281 -10.175781 8.125 -10 C 8.382812 -9.832031 8.570312 -9.613281 8.6875 -9.34375 C 8.8125 -9.070312 8.875 -8.785156 8.875 -8.484375 C 8.875 -8.015625 8.734375 -7.625 8.453125 -7.3125 C 8.179688 -7.007812 7.820312 -6.859375 7.375 -6.859375 C 6.914062 -6.859375 6.5625 -6.972656 6.3125 -7.203125 C 6.0625 -7.429688 5.9375 -7.734375 5.9375 -8.109375 C 5.9375 -8.460938 6.015625 -8.757812 6.171875 -9 C 6.335938 -9.238281 6.546875 -9.441406 6.796875 -9.609375 C 6.609375 -9.660156 6.425781 -9.65625 6.25 -9.59375 C 6 -9.550781 5.765625 -9.445312 5.546875 -9.28125 C 5.328125 -9.125 5.140625 -8.925781 4.984375 -8.6875 C 4.835938 -8.457031 4.71875 -8.203125 4.625 -7.921875 C 4.53125 -7.640625 4.484375 -7.375 4.484375 -7.125 L 4.484375 -2 C 4.484375 -1.375 4.632812 -0.953125 4.9375 -0.734375 C 5.238281 -0.515625 5.695312 -0.40625 6.3125 -0.40625 L 6.3125 0 C 6.007812 -0.0078125 5.570312 -0.0234375 5 -0.046875 C 4.4375 -0.0664062 3.847656 -0.078125 3.234375 -0.078125 C 2.710938 -0.078125 2.1875 -0.0664062 1.65625 -0.046875 C 1.132812 -0.0234375 0.738281 -0.0078125 0.46875 0 L 0.46875 -0.40625 C 0.914062 -0.40625 1.234375 -0.5 1.421875 -0.6875 C 1.609375 -0.882812 1.703125 -1.253906 1.703125 -1.796875 L 1.703125 -7.890625 C 1.703125 -8.472656 1.613281 -8.898438 1.4375 -9.171875 C 1.269531 -9.453125 0.945312 -9.59375 0.46875 -9.59375 L 0.46875 -10 C 0.875 -9.957031 1.269531 -9.9375 1.65625 -9.9375 C 2.195312 -9.9375 2.703125 -9.957031 3.171875 -10 C 3.648438 -10.050781 4.085938 -10.125 4.484375 -10.21875 L 4.484375 -8.421875 C 4.640625 -8.765625 4.847656 -9.078125 5.109375 -9.359375 C 5.367188 -9.640625 5.664062 -9.859375 6 -10.015625 C 6.332031 -10.179688 6.707031 -10.265625 7.125 -10.265625 Z M 7.125 -10.265625 "/></g></g></g><g fill="#fef5e4" fill-opacity="1"><g transform="translate(88.872991, 22.016157)"><g><path d="M 4.390625 -13.171875 L 4.390625 -10 L 6.671875 -10 L 6.671875 -9.609375 L 4.390625 -9.609375 L 4.390625 -1.796875 C 4.390625 -1.410156 4.457031 -1.132812 4.59375 -0.96875 C 4.738281 -0.8125 4.953125 -0.734375 5.234375 -0.734375 C 5.472656 -0.734375 5.707031 -0.816406 5.9375 -0.984375 C 6.164062 -1.160156 6.375 -1.460938 6.5625 -1.890625 L 6.890625 -1.71875 C 6.679688 -1.132812 6.363281 -0.65625 5.9375 -0.28125 C 5.519531 0.0820312 4.953125 0.265625 4.234375 0.265625 C 3.804688 0.265625 3.429688 0.207031 3.109375 0.09375 C 2.785156 -0.0078125 2.515625 -0.171875 2.296875 -0.390625 C 2.015625 -0.671875 1.828125 -1.019531 1.734375 -1.4375 C 1.648438 -1.851562 1.609375 -2.398438 1.609375 -3.078125 L 1.609375 -9.609375 L -0.015625 -9.609375 L -0.015625 -10 L 1.609375 -10 L 1.609375 -12.546875 C 2.148438 -12.546875 2.648438 -12.59375 3.109375 -12.6875 C 3.566406 -12.789062 3.992188 -12.953125 4.390625 -13.171875 Z M 4.390625 -13.171875 "/></g></g></g><g fill="#fef5e4" fill-opacity="1"><g transform="translate(95.683207, 22.016157)"><g><path d="M 4.390625 -15.125 L 4.390625 -8.46875 C 4.710938 -9.144531 5.144531 -9.613281 5.6875 -9.875 C 6.238281 -10.132812 6.859375 -10.265625 7.546875 -10.265625 C 8.097656 -10.265625 8.539062 -10.195312 8.875 -10.0625 C 9.207031 -9.925781 9.472656 -9.742188 9.671875 -9.515625 C 9.890625 -9.273438 10.046875 -8.957031 10.140625 -8.5625 C 10.242188 -8.175781 10.296875 -7.65625 10.296875 -7 L 10.296875 -1.796875 C 10.296875 -1.253906 10.390625 -0.882812 10.578125 -0.6875 C 10.765625 -0.5 11.082031 -0.40625 11.53125 -0.40625 L 11.53125 0 C 11.28125 -0.0078125 10.90625 -0.0234375 10.40625 -0.046875 C 9.914062 -0.0664062 9.4375 -0.078125 8.96875 -0.078125 C 8.46875 -0.078125 7.984375 -0.0664062 7.515625 -0.046875 C 7.046875 -0.0234375 6.691406 -0.0078125 6.453125 0 L 6.453125 -0.40625 C 6.847656 -0.40625 7.117188 -0.5 7.265625 -0.6875 C 7.421875 -0.882812 7.5 -1.253906 7.5 -1.796875 L 7.5 -7.8125 C 7.5 -8.132812 7.46875 -8.414062 7.40625 -8.65625 C 7.34375 -8.894531 7.222656 -9.082031 7.046875 -9.21875 C 6.878906 -9.351562 6.632812 -9.421875 6.3125 -9.421875 C 5.957031 -9.421875 5.632812 -9.328125 5.34375 -9.140625 C 5.050781 -8.953125 4.816406 -8.691406 4.640625 -8.359375 C 4.472656 -8.023438 4.390625 -7.640625 4.390625 -7.203125 L 4.390625 -1.796875 C 4.390625 -1.253906 4.46875 -0.882812 4.625 -0.6875 C 4.78125 -0.5 5.050781 -0.40625 5.4375 -0.40625 L 5.4375 0 C 5.207031 -0.0078125 4.863281 -0.0234375 4.40625 -0.046875 C 3.957031 -0.0664062 3.5 -0.078125 3.03125 -0.078125 C 2.53125 -0.078125 2.023438 -0.0664062 1.515625 -0.046875 C 1.003906 -0.0234375 0.625 -0.0078125 0.375 0 L 0.375 -0.40625 C 0.820312 -0.40625 1.140625 -0.5 1.328125 -0.6875 C 1.515625 -0.882812 1.609375 -1.253906 1.609375 -1.796875 L 1.609375 -12.8125 C 1.609375 -13.382812 1.519531 -13.8125 1.34375 -14.09375 C 1.164062 -14.375 0.84375 -14.515625 0.375 -14.515625 L 0.375 -14.921875 C 0.78125 -14.878906 1.175781 -14.859375 1.5625 -14.859375 C 2.09375 -14.859375 2.597656 -14.878906 3.078125 -14.921875 C 3.554688 -14.960938 3.992188 -15.03125 4.390625 -15.125 Z M 4.390625 -15.125 "/></g></g></g><g fill="#fef5e4" fill-opacity="1"><g transform="translate(107.446309, 22.016157)"><g><path d="M 3.140625 0.140625 C 2.554688 0.140625 2.070312 0.03125 1.6875 -0.1875 C 1.300781 -0.40625 1.015625 -0.695312 0.828125 -1.0625 C 0.648438 -1.4375 0.5625 -1.84375 0.5625 -2.28125 C 0.5625 -2.832031 0.6875 -3.28125 0.9375 -3.625 C 1.1875 -3.976562 1.507812 -4.265625 1.90625 -4.484375 C 2.3125 -4.703125 2.734375 -4.878906 3.171875 -5.015625 C 3.617188 -5.160156 4.046875 -5.300781 4.453125 -5.4375 C 4.859375 -5.570312 5.1875 -5.734375 5.4375 -5.921875 C 5.695312 -6.109375 5.828125 -6.351562 5.828125 -6.65625 L 5.828125 -8.15625 C 5.828125 -8.5 5.769531 -8.800781 5.65625 -9.0625 C 5.550781 -9.320312 5.382812 -9.523438 5.15625 -9.671875 C 4.925781 -9.816406 4.632812 -9.890625 4.28125 -9.890625 C 4.019531 -9.890625 3.757812 -9.851562 3.5 -9.78125 C 3.238281 -9.707031 3.023438 -9.585938 2.859375 -9.421875 C 3.222656 -9.296875 3.503906 -9.097656 3.703125 -8.828125 C 3.898438 -8.566406 4 -8.269531 4 -7.9375 C 4 -7.488281 3.847656 -7.132812 3.546875 -6.875 C 3.242188 -6.625 2.882812 -6.5 2.46875 -6.5 C 2.007812 -6.5 1.660156 -6.644531 1.421875 -6.9375 C 1.179688 -7.226562 1.0625 -7.578125 1.0625 -7.984375 C 1.0625 -8.359375 1.15625 -8.664062 1.34375 -8.90625 C 1.53125 -9.15625 1.789062 -9.390625 2.125 -9.609375 C 2.488281 -9.816406 2.925781 -9.976562 3.4375 -10.09375 C 3.945312 -10.207031 4.5 -10.265625 5.09375 -10.265625 C 5.6875 -10.265625 6.21875 -10.203125 6.6875 -10.078125 C 7.164062 -9.960938 7.566406 -9.742188 7.890625 -9.421875 C 8.191406 -9.117188 8.382812 -8.75 8.46875 -8.3125 C 8.5625 -7.882812 8.609375 -7.34375 8.609375 -6.6875 L 8.609375 -1.4375 C 8.609375 -1.113281 8.640625 -0.890625 8.703125 -0.765625 C 8.765625 -0.640625 8.875 -0.578125 9.03125 -0.578125 C 9.144531 -0.578125 9.253906 -0.609375 9.359375 -0.671875 C 9.472656 -0.742188 9.597656 -0.820312 9.734375 -0.90625 L 9.921875 -0.578125 C 9.648438 -0.347656 9.335938 -0.171875 8.984375 -0.046875 C 8.628906 0.078125 8.234375 0.140625 7.796875 0.140625 C 7.316406 0.140625 6.9375 0.0703125 6.65625 -0.0625 C 6.375 -0.195312 6.171875 -0.378906 6.046875 -0.609375 C 5.921875 -0.847656 5.859375 -1.125 5.859375 -1.4375 C 5.546875 -0.945312 5.171875 -0.5625 4.734375 -0.28125 C 4.296875 0 3.765625 0.140625 3.140625 0.140625 Z M 4.5 -1.109375 C 4.757812 -1.109375 4.992188 -1.164062 5.203125 -1.28125 C 5.421875 -1.40625 5.628906 -1.609375 5.828125 -1.890625 L 5.828125 -5.859375 C 5.703125 -5.671875 5.535156 -5.5 5.328125 -5.34375 C 5.128906 -5.1875 4.910156 -5.023438 4.671875 -4.859375 C 4.441406 -4.703125 4.21875 -4.523438 4 -4.328125 C 3.789062 -4.140625 3.625 -3.898438 3.5 -3.609375 C 3.375 -3.328125 3.3125 -2.988281 3.3125 -2.59375 C 3.3125 -2.09375 3.421875 -1.71875 3.640625 -1.46875 C 3.859375 -1.226562 4.144531 -1.109375 4.5 -1.109375 Z M 4.5 -1.109375 "/></g></g></g></svg>